<?xml version="1.0" encoding="UTF-8" standalone="no"?>
<!DOCTYPE svg PUBLIC "-//W3C//DTD SVG 1.1//EN"
 "http://www.w3.org/Graphics/SVG/1.1/DTD/svg11.dtd">
<!-- Generated by graphviz version 2.40.1 (20161225.0304)
 -->
<!-- Title: dijkstra Pages: 1 -->
<svg width="584pt" height="155pt"
 viewBox="0.00 0.00 583.81 154.80" xmlns="http://www.w3.org/2000/svg" xmlns:xlink="http://www.w3.org/1999/xlink">
<g id="graph0" class="graph" transform="scale(1 1) rotate(0) translate(4 150.8)">
<title>dijkstra</title>
<polygon fill="#ffffff" stroke="transparent" points="-4,4 -4,-150.8 579.8108,-150.8 579.8108,4 -4,4"/>
<!-- s -->
<g id="node1" class="node">
<title>s</title>
<ellipse fill="none" stroke="#000000" cx="22" cy="-72" rx="18" ry="18"/>
<ellipse fill="none" stroke="#000000" cx="22" cy="-72" rx="22" ry="22"/>
<text text-anchor="middle" x="22" y="-67.8" font-family="Times,serif" font-size="14.00" fill="#000000">s</text>
</g>
<!-- 1 -->
<g id="node2" class="node">
<title>1</title>
<ellipse fill="none" stroke="#000000" cx="121.3212" cy="-126" rx="18" ry="18"/>
<text text-anchor="middle" x="121.3212" y="-121.8" font-family="Times,serif" font-size="14.00" fill="#000000">1</text>
</g>
<!-- s&#45;&gt;1 -->
<g id="edge1" class="edge">
<title>s&#45;&gt;1</title>
<path fill="none" stroke="#000000" d="M41.6227,-82.6687C57.3638,-91.2269 79.5545,-103.2918 96.5245,-112.5183"/>
<polygon fill="#000000" stroke="#000000" points="94.8838,-115.6101 105.3411,-117.3118 98.2275,-109.4602 94.8838,-115.6101"/>
<text text-anchor="middle" x="73.6606" y="-109.2" font-family="Times,serif" font-size="14.00" fill="#000000">2(2)</text>
</g>
<!-- 2 -->
<g id="node3" class="node">
<title>2</title>
<ellipse fill="none" stroke="#000000" cx="121.3212" cy="-72" rx="18" ry="18"/>
<text text-anchor="middle" x="121.3212" y="-67.8" font-family="Times,serif" font-size="14.00" fill="#000000">2</text>
</g>
<!-- s&#45;&gt;2 -->
<g id="edge2" class="edge">
<title>s&#45;&gt;2</title>
<path fill="none" stroke="#000000" d="M44.0426,-72C58.5301,-72 77.6158,-72 93.1948,-72"/>
<polygon fill="#000000" stroke="#000000" points="93.3205,-75.5001 103.3205,-72 93.3205,-68.5001 93.3205,-75.5001"/>
<text text-anchor="middle" x="73.6606" y="-76.2" font-family="Times,serif" font-size="14.00" fill="#000000">3(3)</text>
</g>
<!-- 3 -->
<g id="node4" class="node">
<title>3</title>
<ellipse fill="none" stroke="#000000" cx="121.3212" cy="-18" rx="18" ry="18"/>
<text text-anchor="middle" x="121.3212" y="-13.8" font-family="Times,serif" font-size="14.00" fill="#000000">3</text>
</g>
<!-- s&#45;&gt;3 -->
<g id="edge3" class="edge">
<title>s&#45;&gt;3</title>
<path fill="none" stroke="#000000" d="M41.6227,-61.3313C57.3638,-52.7731 79.5545,-40.7082 96.5245,-31.4817"/>
<polygon fill="#000000" stroke="#000000" points="98.2275,-34.5398 105.3411,-26.6882 94.8838,-28.3899 98.2275,-34.5398"/>
<text text-anchor="middle" x="73.6606" y="-54.2" font-family="Times,serif" font-size="14.00" fill="#000000">4(4)</text>
</g>
<!-- 4 -->
<g id="node5" class="node">
<title>4</title>
<ellipse fill="none" stroke="#000000" cx="232.1936" cy="-68" rx="18" ry="18"/>
<text text-anchor="middle" x="232.1936" y="-63.8" font-family="Times,serif" font-size="14.00" fill="#000000">4</text>
</g>
<!-- 1&#45;&gt;4 -->
<g id="edge5" class="edge">
<title>1&#45;&gt;4</title>
<path fill="none" stroke="#000000" d="M137.6808,-117.4419C155.9635,-107.8778 185.7834,-92.2783 207.0371,-81.1599"/>
<polygon fill="#000000" stroke="#000000" points="208.8889,-84.1413 216.1273,-76.4046 205.6442,-77.9387 208.8889,-84.1413"/>
<text text-anchor="middle" x="176.7574" y="-109.2" font-family="Times,serif" font-size="14.00" fill="#000000">10(inf)</text>
</g>
<!-- 6 -->
<g id="node7" class="node">
<title>6</title>
<ellipse fill="none" stroke="#000000" cx="452.5022" cy="-101" rx="18" ry="18"/>
<text text-anchor="middle" x="452.5022" y="-96.8" font-family="Times,serif" font-size="14.00" fill="#000000">6</text>
</g>
<!-- 1&#45;&gt;6 -->
<g id="edge4" class="edge">
<title>1&#45;&gt;6</title>
<path fill="none" stroke="#000000" d="M139.4777,-126.1539C154.6412,-126.2454 176.8278,-126.2936 196.1936,-126 293.5088,-124.5247 320.5897,-142.3807 415.066,-119 419.3187,-117.9475 423.6613,-116.381 427.8115,-114.6035"/>
<polygon fill="#000000" stroke="#000000" points="429.4933,-117.6792 437.0135,-110.2162 426.4806,-111.3606 429.4933,-117.6792"/>
<text text-anchor="middle" x="287.6298" y="-134.2" font-family="Times,serif" font-size="14.00" fill="#000000">20(inf)</text>
</g>
<!-- 2&#45;&gt;4 -->
<g id="edge6" class="edge">
<title>2&#45;&gt;4</title>
<path fill="none" stroke="#000000" d="M139.2529,-70.3867C145.0176,-69.9266 151.4349,-69.4758 157.3212,-69.2 172.7402,-68.4775 189.9626,-68.1671 203.9987,-68.0419"/>
<polygon fill="#000000" stroke="#000000" points="204.0507,-71.5417 214.0284,-67.9785 204.0064,-64.5418 204.0507,-71.5417"/>
<text text-anchor="middle" x="176.7574" y="-73.2" font-family="Times,serif" font-size="14.00" fill="#000000">12(inf)</text>
</g>
<!-- 3&#45;&gt;4 -->
<g id="edge7" class="edge">
<title>3&#45;&gt;4</title>
<path fill="none" stroke="#000000" d="M138.5848,-23.8875C153.9664,-29.331 176.9522,-37.9555 196.1936,-47.2 200.0729,-49.0638 204.0981,-51.1878 207.9907,-53.3496"/>
<polygon fill="#000000" stroke="#000000" points="206.2881,-56.4079 216.702,-58.3579 209.7771,-50.3394 206.2881,-56.4079"/>
<text text-anchor="middle" x="176.7574" y="-52.2" font-family="Times,serif" font-size="14.00" fill="#000000">1(inf)</text>
</g>
<!-- 5 -->
<g id="node6" class="node">
<title>5</title>
<ellipse fill="none" stroke="#000000" cx="343.066" cy="-94" rx="18" ry="18"/>
<text text-anchor="middle" x="343.066" y="-89.8" font-family="Times,serif" font-size="14.00" fill="#000000">5</text>
</g>
<!-- 4&#45;&gt;5 -->
<g id="edge8" class="edge">
<title>4&#45;&gt;5</title>
<path fill="none" stroke="#000000" d="M250.0072,-72.1773C267.626,-76.309 294.8447,-82.6919 315.3019,-87.4892"/>
<polygon fill="#000000" stroke="#000000" points="314.7616,-90.9574 325.2966,-89.833 316.3599,-84.1423 314.7616,-90.9574"/>
<text text-anchor="middle" x="287.6298" y="-88.2" font-family="Times,serif" font-size="14.00" fill="#000000">2(inf)</text>
</g>
<!-- 7 -->
<g id="node8" class="node">
<title>7</title>
<ellipse fill="none" stroke="#000000" cx="397.066" cy="-48" rx="18" ry="18"/>
<text text-anchor="middle" x="397.066" y="-43.8" font-family="Times,serif" font-size="14.00" fill="#000000">7</text>
</g>
<!-- 4&#45;&gt;7 -->
<g id="edge10" class="edge">
<title>4&#45;&gt;7</title>
<path fill="none" stroke="#000000" d="M249.1728,-61.4559C255.105,-59.433 261.8641,-57.4182 268.1936,-56.2 302.4414,-49.6084 342.6552,-47.9999 368.9373,-47.7524"/>
<polygon fill="#000000" stroke="#000000" points="368.9672,-51.2524 378.9552,-47.7181 368.9432,-44.2524 368.9672,-51.2524"/>
<text text-anchor="middle" x="287.6298" y="-61.2" font-family="Times,serif" font-size="14.00" fill="#000000">5(inf)</text>
</g>
<!-- 5&#45;&gt;6 -->
<g id="edge9" class="edge">
<title>5&#45;&gt;6</title>
<path fill="none" stroke="#000000" d="M361.1372,-95.1559C378.3249,-96.2553 404.4408,-97.9258 424.3555,-99.1996"/>
<polygon fill="#000000" stroke="#000000" points="424.2011,-102.6968 434.4042,-99.8424 424.648,-95.7111 424.2011,-102.6968"/>
<text text-anchor="middle" x="397.066" y="-102.2" font-family="Times,serif" font-size="14.00" fill="#000000">4(inf)</text>
</g>
<!-- t -->
<g id="node9" class="node">
<title>t</title>
<ellipse fill="none" stroke="#000000" cx="557.8108" cy="-64" rx="18" ry="18"/>
<text text-anchor="middle" x="557.8108" y="-59.8" font-family="Times,serif" font-size="14.00" fill="#000000">t</text>
</g>
<!-- 6&#45;&gt;t -->
<g id="edge11" class="edge">
<title>6&#45;&gt;t</title>
<path fill="none" stroke="#000000" d="M469.8918,-94.8902C486.5303,-89.0443 511.8634,-80.1435 531.0693,-73.3956"/>
<polygon fill="#000000" stroke="#000000" points="532.4704,-76.6131 540.7448,-69.9961 530.15,-70.0089 532.4704,-76.6131"/>
<text text-anchor="middle" x="505.8746" y="-90.2" font-family="Times,serif" font-size="14.00" fill="#000000">3(inf)</text>
</g>
<!-- 7&#45;&gt;t -->
<g id="edge12" class="edge">
<title>7&#45;&gt;t</title>
<path fill="none" stroke="#000000" d="M415.193,-49.8043C442.9298,-52.5651 496.1505,-57.8625 529.1525,-61.1475"/>
<polygon fill="#000000" stroke="#000000" points="529.2059,-64.67 539.5034,-62.1777 529.8993,-57.7044 529.2059,-64.67"/>
<text text-anchor="middle" x="452.5022" y="-60.2" font-family="Times,serif" font-size="14.00" fill="#000000">10(inf)</text>
</g>
</g>
</svg>
