<?xml version="1.0" encoding="UTF-8" standalone="no"?>
<!DOCTYPE svg PUBLIC "-//W3C//DTD SVG 1.1//EN"
 "http://www.w3.org/Graphics/SVG/1.1/DTD/svg11.dtd">
<!-- Generated by graphviz version 2.40.1 (20161225.0304)
 -->
<!-- Title: dijkstra Pages: 1 -->
<svg width="590pt" height="161pt"
 viewBox="0.00 0.00 590.26 160.80" xmlns="http://www.w3.org/2000/svg" xmlns:xlink="http://www.w3.org/1999/xlink">
<g id="graph0" class="graph" transform="scale(1 1) rotate(0) translate(4 156.8)">
<title>dijkstra</title>
<polygon fill="#ffffff" stroke="transparent" points="-4,4 -4,-156.8 586.2596,-156.8 586.2596,4 -4,4"/>
<!-- s -->
<g id="node1" class="node">
<title>s</title>
<ellipse fill="none" stroke="#000000" cx="22" cy="-72" rx="18" ry="18"/>
<ellipse fill="none" stroke="#000000" cx="22" cy="-72" rx="22" ry="22"/>
<text text-anchor="middle" x="22" y="-67.8" font-family="Times,serif" font-size="14.00" fill="#000000">s</text>
</g>
<!-- 1 -->
<g id="node2" class="node">
<title>1</title>
<ellipse fill="none" stroke="#000000" cx="125.3212" cy="-130" rx="18" ry="18"/>
<ellipse fill="none" stroke="#000000" cx="125.3212" cy="-130" rx="22" ry="22"/>
<text text-anchor="middle" x="125.3212" y="-125.8" font-family="Times,serif" font-size="14.00" fill="#000000">1</text>
</g>
<!-- s&#45;&gt;1 -->
<g id="edge1" class="edge">
<title>s&#45;&gt;1</title>
<path fill="none" stroke="#000000" d="M41.4339,-82.9094C57.1642,-91.7396 79.5316,-104.2957 97.2144,-114.2221"/>
<polygon fill="#000000" stroke="#000000" points="95.5411,-117.2965 105.9744,-119.1396 98.9677,-111.1925 95.5411,-117.2965"/>
<text text-anchor="middle" x="73.6606" y="-110.2" font-family="Times,serif" font-size="14.00" fill="#000000">2(2)</text>
</g>
<!-- 2 -->
<g id="node3" class="node">
<title>2</title>
<ellipse fill="none" stroke="#000000" cx="125.3212" cy="-72" rx="18" ry="18"/>
<text text-anchor="middle" x="125.3212" y="-67.8" font-family="Times,serif" font-size="14.00" fill="#000000">2</text>
</g>
<!-- s&#45;&gt;2 -->
<g id="edge2" class="edge">
<title>s&#45;&gt;2</title>
<path fill="none" stroke="#000000" d="M44.165,-72C59.6327,-72 80.4057,-72 97.0629,-72"/>
<polygon fill="#000000" stroke="#000000" points="97.3176,-75.5001 107.3176,-72 97.3175,-68.5001 97.3176,-75.5001"/>
<text text-anchor="middle" x="73.6606" y="-76.2" font-family="Times,serif" font-size="14.00" fill="#000000">3(3)</text>
</g>
<!-- 3 -->
<g id="node4" class="node">
<title>3</title>
<ellipse fill="none" stroke="#000000" cx="125.3212" cy="-18" rx="18" ry="18"/>
<text text-anchor="middle" x="125.3212" y="-13.8" font-family="Times,serif" font-size="14.00" fill="#000000">3</text>
</g>
<!-- s&#45;&gt;3 -->
<g id="edge3" class="edge">
<title>s&#45;&gt;3</title>
<path fill="none" stroke="#000000" d="M41.9214,-61.5883C58.447,-52.9513 82.0473,-40.6168 99.9276,-31.2717"/>
<polygon fill="#000000" stroke="#000000" points="101.9501,-34.164 109.1914,-26.4301 98.7077,-27.9602 101.9501,-34.164"/>
<text text-anchor="middle" x="73.6606" y="-54.2" font-family="Times,serif" font-size="14.00" fill="#000000">4(4)</text>
</g>
<!-- 4 -->
<g id="node5" class="node">
<title>4</title>
<ellipse fill="none" stroke="#000000" cx="240.1936" cy="-68" rx="18" ry="18"/>
<text text-anchor="middle" x="240.1936" y="-63.8" font-family="Times,serif" font-size="14.00" fill="#000000">4</text>
</g>
<!-- 1&#45;&gt;4 -->
<g id="edge5" class="edge">
<title>1&#45;&gt;4</title>
<path fill="none" stroke="#000000" d="M144.8077,-119.4825C164.2361,-108.9965 194.1502,-92.851 215.2906,-81.4409"/>
<polygon fill="#000000" stroke="#000000" points="217.1796,-84.3987 224.3172,-76.5689 213.8548,-78.2386 217.1796,-84.3987"/>
<text text-anchor="middle" x="184.7574" y="-112.2" font-family="Times,serif" font-size="14.00" fill="#000000">10(12)</text>
</g>
<!-- 6 -->
<g id="node7" class="node">
<title>6</title>
<ellipse fill="none" stroke="#000000" cx="458.951" cy="-101" rx="18" ry="18"/>
<text text-anchor="middle" x="458.951" y="-96.8" font-family="Times,serif" font-size="14.00" fill="#000000">6</text>
</g>
<!-- 1&#45;&gt;6 -->
<g id="edge4" class="edge">
<title>1&#45;&gt;6</title>
<path fill="none" stroke="#000000" d="M147.2991,-132.2011C197.0259,-136.5326 321.6139,-143.7285 421.5148,-119 425.7675,-117.9473 430.11,-116.3806 434.2602,-114.6031"/>
<polygon fill="#000000" stroke="#000000" points="435.942,-117.6788 443.4622,-110.2158 432.9293,-111.3602 435.942,-117.6788"/>
<text text-anchor="middle" x="294.8542" y="-140.2" font-family="Times,serif" font-size="14.00" fill="#000000">20(22)</text>
</g>
<!-- 2&#45;&gt;4 -->
<g id="edge6" class="edge">
<title>2&#45;&gt;4</title>
<path fill="none" stroke="#000000" d="M143.6295,-70.5103C150.436,-70.0114 158.2271,-69.5049 165.3212,-69.2 180.7428,-68.5371 197.9654,-68.231 212.001,-68.0933"/>
<polygon fill="#000000" stroke="#000000" points="212.0569,-71.5931 222.0302,-68.0177 212.004,-64.5933 212.0569,-71.5931"/>
<text text-anchor="middle" x="184.7574" y="-73.2" font-family="Times,serif" font-size="14.00" fill="#000000">12(inf)</text>
</g>
<!-- 3&#45;&gt;4 -->
<g id="edge7" class="edge">
<title>3&#45;&gt;4</title>
<path fill="none" stroke="#000000" d="M142.5866,-23.4516C158.7991,-28.7893 183.5777,-37.5134 204.1936,-47.2 208.0889,-49.0302 212.1226,-51.1363 216.0189,-53.2903"/>
<polygon fill="#000000" stroke="#000000" points="214.3169,-56.3489 224.7312,-58.2964 217.8044,-50.2796 214.3169,-56.3489"/>
<text text-anchor="middle" x="184.7574" y="-52.2" font-family="Times,serif" font-size="14.00" fill="#000000">1(inf)</text>
</g>
<!-- 5 -->
<g id="node6" class="node">
<title>5</title>
<ellipse fill="none" stroke="#000000" cx="349.5148" cy="-94" rx="18" ry="18"/>
<text text-anchor="middle" x="349.5148" y="-89.8" font-family="Times,serif" font-size="14.00" fill="#000000">5</text>
</g>
<!-- 4&#45;&gt;5 -->
<g id="edge8" class="edge">
<title>4&#45;&gt;5</title>
<path fill="none" stroke="#000000" d="M257.7579,-72.1773C275.1303,-76.309 301.9682,-82.6919 322.1391,-87.4892"/>
<polygon fill="#000000" stroke="#000000" points="321.4556,-90.9242 331.994,-89.833 323.0753,-84.1141 321.4556,-90.9242"/>
<text text-anchor="middle" x="294.8542" y="-88.2" font-family="Times,serif" font-size="14.00" fill="#000000">2(inf)</text>
</g>
<!-- 7 -->
<g id="node8" class="node">
<title>7</title>
<ellipse fill="none" stroke="#000000" cx="403.5148" cy="-48" rx="18" ry="18"/>
<text text-anchor="middle" x="403.5148" y="-43.8" font-family="Times,serif" font-size="14.00" fill="#000000">7</text>
</g>
<!-- 4&#45;&gt;7 -->
<g id="edge10" class="edge">
<title>4&#45;&gt;7</title>
<path fill="none" stroke="#000000" d="M257.1733,-61.4587C263.1056,-59.436 269.8646,-57.4207 276.1936,-56.2 309.6876,-49.7401 348.9588,-48.0849 374.9358,-47.7914"/>
<polygon fill="#000000" stroke="#000000" points="375.2173,-51.2901 385.1992,-47.7389 375.1815,-44.2902 375.2173,-51.2901"/>
<text text-anchor="middle" x="294.8542" y="-61.2" font-family="Times,serif" font-size="14.00" fill="#000000">5(inf)</text>
</g>
<!-- 5&#45;&gt;6 -->
<g id="edge9" class="edge">
<title>5&#45;&gt;6</title>
<path fill="none" stroke="#000000" d="M367.586,-95.1559C384.7737,-96.2553 410.8896,-97.9258 430.8043,-99.1996"/>
<polygon fill="#000000" stroke="#000000" points="430.6499,-102.6968 440.853,-99.8424 431.0968,-95.7111 430.6499,-102.6968"/>
<text text-anchor="middle" x="403.5148" y="-102.2" font-family="Times,serif" font-size="14.00" fill="#000000">4(inf)</text>
</g>
<!-- t -->
<g id="node9" class="node">
<title>t</title>
<ellipse fill="none" stroke="#000000" cx="564.2596" cy="-64" rx="18" ry="18"/>
<text text-anchor="middle" x="564.2596" y="-59.8" font-family="Times,serif" font-size="14.00" fill="#000000">t</text>
</g>
<!-- 6&#45;&gt;t -->
<g id="edge11" class="edge">
<title>6&#45;&gt;t</title>
<path fill="none" stroke="#000000" d="M476.3406,-94.8902C492.9791,-89.0443 518.3122,-80.1435 537.5181,-73.3956"/>
<polygon fill="#000000" stroke="#000000" points="538.9192,-76.6131 547.1936,-69.9961 536.5988,-70.0089 538.9192,-76.6131"/>
<text text-anchor="middle" x="512.3234" y="-90.2" font-family="Times,serif" font-size="14.00" fill="#000000">3(inf)</text>
</g>
<!-- 7&#45;&gt;t -->
<g id="edge12" class="edge">
<title>7&#45;&gt;t</title>
<path fill="none" stroke="#000000" d="M421.6418,-49.8043C449.3786,-52.5651 502.5993,-57.8625 535.6013,-61.1475"/>
<polygon fill="#000000" stroke="#000000" points="535.6547,-64.67 545.9522,-62.1777 536.3481,-57.7044 535.6547,-64.67"/>
<text text-anchor="middle" x="458.951" y="-60.2" font-family="Times,serif" font-size="14.00" fill="#000000">10(inf)</text>
</g>
</g>
</svg>
