<?xml version="1.0" encoding="UTF-8" standalone="no"?>
<!DOCTYPE svg PUBLIC "-//W3C//DTD SVG 1.1//EN"
 "http://www.w3.org/Graphics/SVG/1.1/DTD/svg11.dtd">
<!-- Generated by graphviz version 2.40.1 (20161225.0304)
 -->
<!-- Title: dijkstra Pages: 1 -->
<svg width="589pt" height="168pt"
 viewBox="0.00 0.00 588.71 168.00" xmlns="http://www.w3.org/2000/svg" xmlns:xlink="http://www.w3.org/1999/xlink">
<g id="graph0" class="graph" transform="scale(1 1) rotate(0) translate(4 164)">
<title>dijkstra</title>
<polygon fill="#ffffff" stroke="transparent" points="-4,4 -4,-164 584.7084,-164 584.7084,4 -4,4"/>
<!-- s -->
<g id="node1" class="node">
<title>s</title>
<ellipse fill="none" stroke="#000000" cx="22" cy="-76" rx="18" ry="18"/>
<ellipse fill="none" stroke="#000000" cx="22" cy="-76" rx="22" ry="22"/>
<text text-anchor="middle" x="22" y="-71.8" font-family="Times,serif" font-size="14.00" fill="#000000">s</text>
</g>
<!-- 1 -->
<g id="node2" class="node">
<title>1</title>
<ellipse fill="none" stroke="#000000" cx="125.3212" cy="-138" rx="18" ry="18"/>
<ellipse fill="none" stroke="#000000" cx="125.3212" cy="-138" rx="22" ry="22"/>
<text text-anchor="middle" x="125.3212" y="-133.8" font-family="Times,serif" font-size="14.00" fill="#000000">1</text>
</g>
<!-- s&#45;&gt;1 -->
<g id="edge1" class="edge">
<title>s&#45;&gt;1</title>
<path fill="none" stroke="#000000" d="M40.9507,-87.3718C56.7267,-96.8385 79.4163,-110.4538 97.2931,-121.1812"/>
<polygon fill="#000000" stroke="#000000" points="95.7652,-124.3461 106.1407,-126.4904 99.367,-118.3438 95.7652,-124.3461"/>
<text text-anchor="middle" x="73.6606" y="-116.2" font-family="Times,serif" font-size="14.00" fill="#000000">2(2)</text>
</g>
<!-- 2 -->
<g id="node3" class="node">
<title>2</title>
<ellipse fill="none" stroke="#000000" cx="125.3212" cy="-76" rx="18" ry="18"/>
<ellipse fill="none" stroke="#000000" cx="125.3212" cy="-76" rx="22" ry="22"/>
<text text-anchor="middle" x="125.3212" y="-71.8" font-family="Times,serif" font-size="14.00" fill="#000000">2</text>
</g>
<!-- s&#45;&gt;2 -->
<g id="edge2" class="edge">
<title>s&#45;&gt;2</title>
<path fill="none" stroke="#000000" d="M44.165,-76C58.3291,-76 76.942,-76 92.7694,-76"/>
<polygon fill="#000000" stroke="#000000" points="93.1929,-79.5001 103.1929,-76 93.1928,-72.5001 93.1929,-79.5001"/>
<text text-anchor="middle" x="73.6606" y="-80.2" font-family="Times,serif" font-size="14.00" fill="#000000">3(3)</text>
</g>
<!-- 3 -->
<g id="node4" class="node">
<title>3</title>
<ellipse fill="none" stroke="#000000" cx="125.3212" cy="-18" rx="18" ry="18"/>
<text text-anchor="middle" x="125.3212" y="-13.8" font-family="Times,serif" font-size="14.00" fill="#000000">3</text>
</g>
<!-- s&#45;&gt;3 -->
<g id="edge3" class="edge">
<title>s&#45;&gt;3</title>
<path fill="none" stroke="#000000" d="M41.4339,-65.0906C58.1597,-55.7015 82.3895,-42.1 100.5127,-31.9264"/>
<polygon fill="#000000" stroke="#000000" points="102.3546,-34.9063 109.3613,-26.9592 98.928,-28.8022 102.3546,-34.9063"/>
<text text-anchor="middle" x="73.6606" y="-57.2" font-family="Times,serif" font-size="14.00" fill="#000000">4(4)</text>
</g>
<!-- 4 -->
<g id="node5" class="node">
<title>4</title>
<ellipse fill="none" stroke="#000000" cx="238.6424" cy="-71" rx="18" ry="18"/>
<text text-anchor="middle" x="238.6424" y="-66.8" font-family="Times,serif" font-size="14.00" fill="#000000">4</text>
</g>
<!-- 1&#45;&gt;4 -->
<g id="edge5" class="edge">
<title>1&#45;&gt;4</title>
<path fill="none" stroke="#000000" d="M143.8945,-125.6867C150.5918,-121.3355 158.2436,-116.4656 165.3212,-112.2 181.3245,-102.5549 199.6498,-92.2576 213.9767,-84.3702"/>
<polygon fill="#000000" stroke="#000000" points="215.6597,-87.4391 222.7496,-79.5661 212.2975,-81.2994 215.6597,-87.4391"/>
<text text-anchor="middle" x="183.9818" y="-116.2" font-family="Times,serif" font-size="14.00" fill="#000000">10(12)</text>
</g>
<!-- 6 -->
<g id="node7" class="node">
<title>6</title>
<ellipse fill="none" stroke="#000000" cx="457.3998" cy="-104" rx="18" ry="18"/>
<text text-anchor="middle" x="457.3998" y="-99.8" font-family="Times,serif" font-size="14.00" fill="#000000">6</text>
</g>
<!-- 1&#45;&gt;6 -->
<g id="edge4" class="edge">
<title>1&#45;&gt;6</title>
<path fill="none" stroke="#000000" d="M147.5763,-139.7184C197.3301,-142.931 320.9707,-147.4054 419.9636,-122 424.2071,-120.9109 428.5448,-119.3251 432.693,-117.5396"/>
<polygon fill="#000000" stroke="#000000" points="434.3754,-120.615 441.8946,-113.1509 431.362,-114.2968 434.3754,-120.615"/>
<text text-anchor="middle" x="293.303" y="-145.2" font-family="Times,serif" font-size="14.00" fill="#000000">20(22)</text>
</g>
<!-- 2&#45;&gt;4 -->
<g id="edge6" class="edge">
<title>2&#45;&gt;4</title>
<path fill="none" stroke="#000000" d="M147.3044,-73.5994C153.1529,-73.0462 159.4706,-72.5253 165.3212,-72.2 180.1658,-71.3747 196.7248,-71.0526 210.345,-70.9464"/>
<polygon fill="#000000" stroke="#000000" points="210.5645,-74.4456 220.5491,-70.902 210.5339,-67.4457 210.5645,-74.4456"/>
<text text-anchor="middle" x="183.9818" y="-76.2" font-family="Times,serif" font-size="14.00" fill="#000000">12(15)</text>
</g>
<!-- 3&#45;&gt;4 -->
<g id="edge7" class="edge">
<title>3&#45;&gt;4</title>
<path fill="none" stroke="#000000" d="M142.1905,-24.2983C158.0442,-30.3869 182.3085,-40.1443 202.6424,-50.2 206.5003,-52.1078 210.514,-54.2553 214.4017,-56.4273"/>
<polygon fill="#000000" stroke="#000000" points="212.6983,-59.4852 223.1115,-61.4385 216.1892,-53.4177 212.6983,-59.4852"/>
<text text-anchor="middle" x="183.9818" y="-55.2" font-family="Times,serif" font-size="14.00" fill="#000000">1(inf)</text>
</g>
<!-- 5 -->
<g id="node6" class="node">
<title>5</title>
<ellipse fill="none" stroke="#000000" cx="347.9636" cy="-97" rx="18" ry="18"/>
<text text-anchor="middle" x="347.9636" y="-92.8" font-family="Times,serif" font-size="14.00" fill="#000000">5</text>
</g>
<!-- 4&#45;&gt;5 -->
<g id="edge8" class="edge">
<title>4&#45;&gt;5</title>
<path fill="none" stroke="#000000" d="M256.2067,-75.1773C273.5791,-79.309 300.417,-85.6919 320.5879,-90.4892"/>
<polygon fill="#000000" stroke="#000000" points="319.9044,-93.9242 330.4428,-92.833 321.5241,-87.1141 319.9044,-93.9242"/>
<text text-anchor="middle" x="293.303" y="-91.2" font-family="Times,serif" font-size="14.00" fill="#000000">2(inf)</text>
</g>
<!-- 7 -->
<g id="node8" class="node">
<title>7</title>
<ellipse fill="none" stroke="#000000" cx="401.9636" cy="-51" rx="18" ry="18"/>
<text text-anchor="middle" x="401.9636" y="-46.8" font-family="Times,serif" font-size="14.00" fill="#000000">7</text>
</g>
<!-- 4&#45;&gt;7 -->
<g id="edge10" class="edge">
<title>4&#45;&gt;7</title>
<path fill="none" stroke="#000000" d="M255.6221,-64.4587C261.5544,-62.436 268.3134,-60.4207 274.6424,-59.2 308.1364,-52.7401 347.4076,-51.0849 373.3846,-50.7914"/>
<polygon fill="#000000" stroke="#000000" points="373.6661,-54.2901 383.648,-50.7389 373.6303,-47.2902 373.6661,-54.2901"/>
<text text-anchor="middle" x="293.303" y="-63.2" font-family="Times,serif" font-size="14.00" fill="#000000">5(inf)</text>
</g>
<!-- 5&#45;&gt;6 -->
<g id="edge9" class="edge">
<title>5&#45;&gt;6</title>
<path fill="none" stroke="#000000" d="M366.0348,-98.1559C383.2225,-99.2553 409.3384,-100.9258 429.2531,-102.1996"/>
<polygon fill="#000000" stroke="#000000" points="429.0987,-105.6968 439.3018,-102.8424 429.5456,-98.7111 429.0987,-105.6968"/>
<text text-anchor="middle" x="401.9636" y="-105.2" font-family="Times,serif" font-size="14.00" fill="#000000">4(inf)</text>
</g>
<!-- t -->
<g id="node9" class="node">
<title>t</title>
<ellipse fill="none" stroke="#000000" cx="562.7084" cy="-67" rx="18" ry="18"/>
<text text-anchor="middle" x="562.7084" y="-62.8" font-family="Times,serif" font-size="14.00" fill="#000000">t</text>
</g>
<!-- 6&#45;&gt;t -->
<g id="edge11" class="edge">
<title>6&#45;&gt;t</title>
<path fill="none" stroke="#000000" d="M474.7894,-97.8902C491.4279,-92.0443 516.761,-83.1435 535.9669,-76.3956"/>
<polygon fill="#000000" stroke="#000000" points="537.368,-79.6131 545.6424,-72.9961 535.0476,-73.0089 537.368,-79.6131"/>
<text text-anchor="middle" x="510.7722" y="-93.2" font-family="Times,serif" font-size="14.00" fill="#000000">3(inf)</text>
</g>
<!-- 7&#45;&gt;t -->
<g id="edge12" class="edge">
<title>7&#45;&gt;t</title>
<path fill="none" stroke="#000000" d="M420.0906,-52.8043C447.8274,-55.5651 501.0481,-60.8625 534.0501,-64.1475"/>
<polygon fill="#000000" stroke="#000000" points="534.1035,-67.67 544.401,-65.1777 534.7969,-60.7044 534.1035,-67.67"/>
<text text-anchor="middle" x="457.3998" y="-62.2" font-family="Times,serif" font-size="14.00" fill="#000000">10(inf)</text>
</g>
</g>
</svg>
