<?xml version="1.0" encoding="UTF-8" standalone="no"?>
<!DOCTYPE svg PUBLIC "-//W3C//DTD SVG 1.1//EN"
 "http://www.w3.org/Graphics/SVG/1.1/DTD/svg11.dtd">
<!-- Generated by graphviz version 2.40.1 (20161225.0304)
 -->
<!-- Title: dijkstra Pages: 1 -->
<svg width="589pt" height="176pt"
 viewBox="0.00 0.00 588.71 176.00" xmlns="http://www.w3.org/2000/svg" xmlns:xlink="http://www.w3.org/1999/xlink">
<g id="graph0" class="graph" transform="scale(1 1) rotate(0) translate(4 172)">
<title>dijkstra</title>
<polygon fill="#ffffff" stroke="transparent" points="-4,4 -4,-172 584.7084,-172 584.7084,4 -4,4"/>
<!-- s -->
<g id="node1" class="node">
<title>s</title>
<ellipse fill="none" stroke="#000000" cx="22" cy="-84" rx="18" ry="18"/>
<ellipse fill="none" stroke="#000000" cx="22" cy="-84" rx="22" ry="22"/>
<text text-anchor="middle" x="22" y="-79.8" font-family="Times,serif" font-size="14.00" fill="#000000">s</text>
</g>
<!-- 1 -->
<g id="node2" class="node">
<title>1</title>
<ellipse fill="none" stroke="#000000" cx="125.3212" cy="-146" rx="18" ry="18"/>
<ellipse fill="none" stroke="#000000" cx="125.3212" cy="-146" rx="22" ry="22"/>
<text text-anchor="middle" x="125.3212" y="-141.8" font-family="Times,serif" font-size="14.00" fill="#000000">1</text>
</g>
<!-- s&#45;&gt;1 -->
<g id="edge1" class="edge">
<title>s&#45;&gt;1</title>
<path fill="none" stroke="#000000" d="M40.9507,-95.3718C56.7267,-104.8385 79.4163,-118.4538 97.2931,-129.1812"/>
<polygon fill="#000000" stroke="#000000" points="95.7652,-132.3461 106.1407,-134.4904 99.367,-126.3438 95.7652,-132.3461"/>
<text text-anchor="middle" x="73.6606" y="-124.2" font-family="Times,serif" font-size="14.00" fill="#000000">2(2)</text>
</g>
<!-- 2 -->
<g id="node3" class="node">
<title>2</title>
<ellipse fill="none" stroke="#000000" cx="125.3212" cy="-84" rx="18" ry="18"/>
<ellipse fill="none" stroke="#000000" cx="125.3212" cy="-84" rx="22" ry="22"/>
<text text-anchor="middle" x="125.3212" y="-79.8" font-family="Times,serif" font-size="14.00" fill="#000000">2</text>
</g>
<!-- s&#45;&gt;2 -->
<g id="edge2" class="edge">
<title>s&#45;&gt;2</title>
<path fill="none" stroke="#000000" d="M44.165,-84C58.3291,-84 76.942,-84 92.7694,-84"/>
<polygon fill="#000000" stroke="#000000" points="93.1929,-87.5001 103.1929,-84 93.1928,-80.5001 93.1929,-87.5001"/>
<text text-anchor="middle" x="73.6606" y="-88.2" font-family="Times,serif" font-size="14.00" fill="#000000">3(3)</text>
</g>
<!-- 3 -->
<g id="node4" class="node">
<title>3</title>
<ellipse fill="none" stroke="#000000" cx="125.3212" cy="-22" rx="18" ry="18"/>
<ellipse fill="none" stroke="#000000" cx="125.3212" cy="-22" rx="22" ry="22"/>
<text text-anchor="middle" x="125.3212" y="-17.8" font-family="Times,serif" font-size="14.00" fill="#000000">3</text>
</g>
<!-- s&#45;&gt;3 -->
<g id="edge3" class="edge">
<title>s&#45;&gt;3</title>
<path fill="none" stroke="#000000" d="M40.9507,-72.6282C56.7267,-63.1615 79.4163,-49.5462 97.2931,-38.8188"/>
<polygon fill="#000000" stroke="#000000" points="99.367,-41.6562 106.1407,-33.5096 95.7652,-35.6539 99.367,-41.6562"/>
<text text-anchor="middle" x="73.6606" y="-63.2" font-family="Times,serif" font-size="14.00" fill="#000000">4(4)</text>
</g>
<!-- 4 -->
<g id="node5" class="node">
<title>4</title>
<ellipse fill="none" stroke="#000000" cx="238.6424" cy="-79" rx="18" ry="18"/>
<text text-anchor="middle" x="238.6424" y="-74.8" font-family="Times,serif" font-size="14.00" fill="#000000">4</text>
</g>
<!-- 1&#45;&gt;4 -->
<g id="edge5" class="edge">
<title>1&#45;&gt;4</title>
<path fill="none" stroke="#000000" d="M143.8945,-133.6867C150.5918,-129.3355 158.2436,-124.4656 165.3212,-120.2 181.3245,-110.5549 199.6498,-100.2576 213.9767,-92.3702"/>
<polygon fill="#000000" stroke="#000000" points="215.6597,-95.4391 222.7496,-87.5661 212.2975,-89.2994 215.6597,-95.4391"/>
<text text-anchor="middle" x="183.9818" y="-124.2" font-family="Times,serif" font-size="14.00" fill="#000000">10(12)</text>
</g>
<!-- 6 -->
<g id="node7" class="node">
<title>6</title>
<ellipse fill="none" stroke="#000000" cx="457.3998" cy="-112" rx="18" ry="18"/>
<text text-anchor="middle" x="457.3998" y="-107.8" font-family="Times,serif" font-size="14.00" fill="#000000">6</text>
</g>
<!-- 1&#45;&gt;6 -->
<g id="edge4" class="edge">
<title>1&#45;&gt;6</title>
<path fill="none" stroke="#000000" d="M147.5763,-147.7184C197.3301,-150.931 320.9707,-155.4054 419.9636,-130 424.2071,-128.9109 428.5448,-127.3251 432.693,-125.5396"/>
<polygon fill="#000000" stroke="#000000" points="434.3754,-128.615 441.8946,-121.1509 431.362,-122.2968 434.3754,-128.615"/>
<text text-anchor="middle" x="293.303" y="-153.2" font-family="Times,serif" font-size="14.00" fill="#000000">20(22)</text>
</g>
<!-- 2&#45;&gt;4 -->
<g id="edge6" class="edge">
<title>2&#45;&gt;4</title>
<path fill="none" stroke="#000000" d="M147.3044,-81.5994C153.1529,-81.0462 159.4706,-80.5253 165.3212,-80.2 180.1658,-79.3747 196.7248,-79.0526 210.345,-78.9464"/>
<polygon fill="#000000" stroke="#000000" points="210.5645,-82.4456 220.5491,-78.902 210.5339,-75.4457 210.5645,-82.4456"/>
<text text-anchor="middle" x="183.9818" y="-84.2" font-family="Times,serif" font-size="14.00" fill="#000000">12(15)</text>
</g>
<!-- 3&#45;&gt;4 -->
<g id="edge7" class="edge">
<title>3&#45;&gt;4</title>
<path fill="none" stroke="#000000" d="M145.5782,-30.9081C161.3126,-37.9652 183.5878,-48.2584 202.6424,-58.2 206.4581,-60.1908 210.4493,-62.3826 214.3272,-64.5738"/>
<polygon fill="#000000" stroke="#000000" points="212.6222,-67.6308 223.0343,-69.5905 216.1169,-61.5655 212.6222,-67.6308"/>
<text text-anchor="middle" x="183.9818" y="-63.2" font-family="Times,serif" font-size="14.00" fill="#000000">1(5)</text>
</g>
<!-- 5 -->
<g id="node6" class="node">
<title>5</title>
<ellipse fill="none" stroke="#000000" cx="347.9636" cy="-105" rx="18" ry="18"/>
<text text-anchor="middle" x="347.9636" y="-100.8" font-family="Times,serif" font-size="14.00" fill="#000000">5</text>
</g>
<!-- 4&#45;&gt;5 -->
<g id="edge8" class="edge">
<title>4&#45;&gt;5</title>
<path fill="none" stroke="#000000" d="M256.2067,-83.1773C273.5791,-87.309 300.417,-93.6919 320.5879,-98.4892"/>
<polygon fill="#000000" stroke="#000000" points="319.9044,-101.9242 330.4428,-100.833 321.5241,-95.1141 319.9044,-101.9242"/>
<text text-anchor="middle" x="293.303" y="-99.2" font-family="Times,serif" font-size="14.00" fill="#000000">2(inf)</text>
</g>
<!-- 7 -->
<g id="node8" class="node">
<title>7</title>
<ellipse fill="none" stroke="#000000" cx="401.9636" cy="-59" rx="18" ry="18"/>
<text text-anchor="middle" x="401.9636" y="-54.8" font-family="Times,serif" font-size="14.00" fill="#000000">7</text>
</g>
<!-- 4&#45;&gt;7 -->
<g id="edge10" class="edge">
<title>4&#45;&gt;7</title>
<path fill="none" stroke="#000000" d="M255.6221,-72.4587C261.5544,-70.436 268.3134,-68.4207 274.6424,-67.2 308.1364,-60.7401 347.4076,-59.0849 373.3846,-58.7914"/>
<polygon fill="#000000" stroke="#000000" points="373.6661,-62.2901 383.648,-58.7389 373.6303,-55.2902 373.6661,-62.2901"/>
<text text-anchor="middle" x="293.303" y="-71.2" font-family="Times,serif" font-size="14.00" fill="#000000">5(inf)</text>
</g>
<!-- 5&#45;&gt;6 -->
<g id="edge9" class="edge">
<title>5&#45;&gt;6</title>
<path fill="none" stroke="#000000" d="M366.0348,-106.1559C383.2225,-107.2553 409.3384,-108.9258 429.2531,-110.1996"/>
<polygon fill="#000000" stroke="#000000" points="429.0987,-113.6968 439.3018,-110.8424 429.5456,-106.7111 429.0987,-113.6968"/>
<text text-anchor="middle" x="401.9636" y="-113.2" font-family="Times,serif" font-size="14.00" fill="#000000">4(inf)</text>
</g>
<!-- t -->
<g id="node9" class="node">
<title>t</title>
<ellipse fill="none" stroke="#000000" cx="562.7084" cy="-75" rx="18" ry="18"/>
<text text-anchor="middle" x="562.7084" y="-70.8" font-family="Times,serif" font-size="14.00" fill="#000000">t</text>
</g>
<!-- 6&#45;&gt;t -->
<g id="edge11" class="edge">
<title>6&#45;&gt;t</title>
<path fill="none" stroke="#000000" d="M474.7894,-105.8902C491.4279,-100.0443 516.761,-91.1435 535.9669,-84.3956"/>
<polygon fill="#000000" stroke="#000000" points="537.368,-87.6131 545.6424,-80.9961 535.0476,-81.0089 537.368,-87.6131"/>
<text text-anchor="middle" x="510.7722" y="-101.2" font-family="Times,serif" font-size="14.00" fill="#000000">3(inf)</text>
</g>
<!-- 7&#45;&gt;t -->
<g id="edge12" class="edge">
<title>7&#45;&gt;t</title>
<path fill="none" stroke="#000000" d="M420.0906,-60.8043C447.8274,-63.5651 501.0481,-68.8625 534.0501,-72.1475"/>
<polygon fill="#000000" stroke="#000000" points="534.1035,-75.67 544.401,-73.1777 534.7969,-68.7044 534.1035,-75.67"/>
<text text-anchor="middle" x="457.3998" y="-70.2" font-family="Times,serif" font-size="14.00" fill="#000000">10(inf)</text>
</g>
</g>
</svg>
