<?xml version="1.0" encoding="UTF-8" standalone="no"?>
<!DOCTYPE svg PUBLIC "-//W3C//DTD SVG 1.1//EN"
 "http://www.w3.org/Graphics/SVG/1.1/DTD/svg11.dtd">
<!-- Generated by graphviz version 2.40.1 (20161225.0304)
 -->
<!-- Title: dijkstra Pages: 1 -->
<svg width="624pt" height="176pt"
 viewBox="0.00 0.00 624.28 176.00" xmlns="http://www.w3.org/2000/svg" xmlns:xlink="http://www.w3.org/1999/xlink">
<g id="graph0" class="graph" transform="scale(1 1) rotate(0) translate(4 172)">
<title>dijkstra</title>
<polygon fill="#ffffff" stroke="transparent" points="-4,4 -4,-172 620.2848,-172 620.2848,4 -4,4"/>
<!-- s -->
<g id="node1" class="node">
<title>s</title>
<ellipse fill="none" stroke="#000000" cx="22" cy="-84" rx="18" ry="18"/>
<ellipse fill="none" stroke="#000000" cx="22" cy="-84" rx="22" ry="22"/>
<text text-anchor="middle" x="22" y="-79.8" font-family="Times,serif" font-size="14.00" fill="#000000">s</text>
</g>
<!-- 1 -->
<g id="node2" class="node">
<title>1</title>
<ellipse fill="none" stroke="#000000" cx="125.3212" cy="-146" rx="18" ry="18"/>
<ellipse fill="none" stroke="#000000" cx="125.3212" cy="-146" rx="22" ry="22"/>
<text text-anchor="middle" x="125.3212" y="-141.8" font-family="Times,serif" font-size="14.00" fill="#000000">1</text>
</g>
<!-- s&#45;&gt;1 -->
<g id="edge1" class="edge">
<title>s&#45;&gt;1</title>
<path fill="none" stroke="#000000" d="M40.9507,-95.3718C56.7267,-104.8385 79.4163,-118.4538 97.2931,-129.1812"/>
<polygon fill="#000000" stroke="#000000" points="95.7652,-132.3461 106.1407,-134.4904 99.367,-126.3438 95.7652,-132.3461"/>
<text text-anchor="middle" x="73.6606" y="-124.2" font-family="Times,serif" font-size="14.00" fill="#000000">2(2)</text>
</g>
<!-- 2 -->
<g id="node3" class="node">
<title>2</title>
<ellipse fill="none" stroke="#000000" cx="125.3212" cy="-84" rx="18" ry="18"/>
<ellipse fill="none" stroke="#000000" cx="125.3212" cy="-84" rx="22" ry="22"/>
<text text-anchor="middle" x="125.3212" y="-79.8" font-family="Times,serif" font-size="14.00" fill="#000000">2</text>
</g>
<!-- s&#45;&gt;2 -->
<g id="edge2" class="edge">
<title>s&#45;&gt;2</title>
<path fill="none" stroke="#000000" d="M44.165,-84C58.3291,-84 76.942,-84 92.7694,-84"/>
<polygon fill="#000000" stroke="#000000" points="93.1929,-87.5001 103.1929,-84 93.1928,-80.5001 93.1929,-87.5001"/>
<text text-anchor="middle" x="73.6606" y="-88.2" font-family="Times,serif" font-size="14.00" fill="#000000">3(3)</text>
</g>
<!-- 3 -->
<g id="node4" class="node">
<title>3</title>
<ellipse fill="none" stroke="#000000" cx="125.3212" cy="-22" rx="18" ry="18"/>
<ellipse fill="none" stroke="#000000" cx="125.3212" cy="-22" rx="22" ry="22"/>
<text text-anchor="middle" x="125.3212" y="-17.8" font-family="Times,serif" font-size="14.00" fill="#000000">3</text>
</g>
<!-- s&#45;&gt;3 -->
<g id="edge3" class="edge">
<title>s&#45;&gt;3</title>
<path fill="none" stroke="#000000" d="M40.9507,-72.6282C56.7267,-63.1615 79.4163,-49.5462 97.2931,-38.8188"/>
<polygon fill="#000000" stroke="#000000" points="99.367,-41.6562 106.1407,-33.5096 95.7652,-35.6539 99.367,-41.6562"/>
<text text-anchor="middle" x="73.6606" y="-63.2" font-family="Times,serif" font-size="14.00" fill="#000000">4(4)</text>
</g>
<!-- 4 -->
<g id="node5" class="node">
<title>4</title>
<ellipse fill="none" stroke="#000000" cx="242.6424" cy="-79" rx="18" ry="18"/>
<ellipse fill="none" stroke="#000000" cx="242.6424" cy="-79" rx="22" ry="22"/>
<text text-anchor="middle" x="242.6424" y="-74.8" font-family="Times,serif" font-size="14.00" fill="#000000">4</text>
</g>
<!-- 1&#45;&gt;4 -->
<g id="edge5" class="edge">
<title>1&#45;&gt;4</title>
<path fill="none" stroke="#000000" d="M143.8418,-133.5982C150.5342,-129.2387 158.1963,-124.3862 165.3212,-120.2 181.0278,-110.9716 198.9614,-101.3605 213.6007,-93.7447"/>
<polygon fill="#000000" stroke="#000000" points="215.4089,-96.7501 222.6885,-89.0521 212.1972,-90.5303 215.4089,-96.7501"/>
<text text-anchor="middle" x="183.9818" y="-124.2" font-family="Times,serif" font-size="14.00" fill="#000000">10(12)</text>
</g>
<!-- 6 -->
<g id="node7" class="node">
<title>6</title>
<ellipse fill="none" stroke="#000000" cx="483.9636" cy="-108" rx="18" ry="18"/>
<ellipse fill="none" stroke="#000000" cx="483.9636" cy="-108" rx="22" ry="22"/>
<text text-anchor="middle" x="483.9636" y="-103.8" font-family="Times,serif" font-size="14.00" fill="#000000">6</text>
</g>
<!-- 1&#45;&gt;6 -->
<g id="edge4" class="edge">
<title>1&#45;&gt;6</title>
<path fill="none" stroke="#000000" d="M147.3127,-145.1119C191.7065,-143.2502 295.1981,-138.562 381.9636,-132 409.5691,-129.9122 417.2074,-133.1081 443.9636,-126 447.6389,-125.0236 451.4025,-123.7432 455.0799,-122.3146"/>
<polygon fill="#000000" stroke="#000000" points="456.6722,-125.4404 464.4936,-118.2936 453.9225,-119.0031 456.6722,-125.4404"/>
<text text-anchor="middle" x="301.303" y="-142.2" font-family="Times,serif" font-size="14.00" fill="#000000">20(22)</text>
</g>
<!-- 2&#45;&gt;4 -->
<g id="edge6" class="edge">
<title>2&#45;&gt;4</title>
<path fill="none" stroke="#000000" d="M147.3042,-81.5961C153.1527,-81.0429 159.4705,-80.5228 165.3212,-80.2 180.1694,-79.3808 196.6439,-79.0458 210.5577,-78.9294"/>
<polygon fill="#000000" stroke="#000000" points="210.647,-82.4291 220.6292,-78.8786 210.6116,-75.4292 210.647,-82.4291"/>
<text text-anchor="middle" x="183.9818" y="-84.2" font-family="Times,serif" font-size="14.00" fill="#000000">12(15)</text>
</g>
<!-- 3&#45;&gt;4 -->
<g id="edge7" class="edge">
<title>3&#45;&gt;4</title>
<path fill="none" stroke="#000000" d="M145.4564,-31.1481C161.1253,-38.3341 183.3719,-48.6838 202.6424,-58.2 206.4322,-60.0715 210.403,-62.0789 214.3097,-64.0817"/>
<polygon fill="#000000" stroke="#000000" points="212.7043,-67.1917 223.1941,-68.6802 215.922,-60.9751 212.7043,-67.1917"/>
<text text-anchor="middle" x="183.9818" y="-63.2" font-family="Times,serif" font-size="14.00" fill="#000000">1(5)</text>
</g>
<!-- 5 -->
<g id="node6" class="node">
<title>5</title>
<ellipse fill="none" stroke="#000000" cx="359.9636" cy="-101" rx="18" ry="18"/>
<ellipse fill="none" stroke="#000000" cx="359.9636" cy="-101" rx="22" ry="22"/>
<text text-anchor="middle" x="359.9636" y="-96.8" font-family="Times,serif" font-size="14.00" fill="#000000">5</text>
</g>
<!-- 4&#45;&gt;5 -->
<g id="edge8" class="edge">
<title>4&#45;&gt;5</title>
<path fill="none" stroke="#000000" d="M264.4347,-83.0865C282.3794,-86.4515 308.065,-91.268 328.2834,-95.0594"/>
<polygon fill="#000000" stroke="#000000" points="327.8142,-98.5323 338.288,-96.9354 329.1045,-91.6522 327.8142,-98.5323"/>
<text text-anchor="middle" x="301.303" y="-97.2" font-family="Times,serif" font-size="14.00" fill="#000000">2(7)</text>
</g>
<!-- 7 -->
<g id="node8" class="node">
<title>7</title>
<ellipse fill="none" stroke="#000000" cx="421.9636" cy="-51" rx="18" ry="18"/>
<ellipse fill="none" stroke="#000000" cx="421.9636" cy="-51" rx="22" ry="22"/>
<text text-anchor="middle" x="421.9636" y="-46.8" font-family="Times,serif" font-size="14.00" fill="#000000">7</text>
</g>
<!-- 4&#45;&gt;7 -->
<g id="edge10" class="edge">
<title>4&#45;&gt;7</title>
<path fill="none" stroke="#000000" d="M263.1426,-70.9123C269.3252,-68.7508 276.1858,-66.6228 282.6424,-65.2 318.6442,-57.2667 360.8749,-53.7495 389.3256,-52.2003"/>
<polygon fill="#000000" stroke="#000000" points="389.6977,-55.6863 399.5131,-51.6978 389.3528,-48.6948 389.6977,-55.6863"/>
<text text-anchor="middle" x="301.303" y="-69.2" font-family="Times,serif" font-size="14.00" fill="#000000">5(12)</text>
</g>
<!-- 5&#45;&gt;6 -->
<g id="edge9" class="edge">
<title>5&#45;&gt;6</title>
<path fill="none" stroke="#000000" d="M382.1323,-102.2515C401.5287,-103.3464 429.9447,-104.9505 451.8337,-106.1862"/>
<polygon fill="#000000" stroke="#000000" points="451.8054,-109.6901 461.9868,-106.7594 452.2,-102.7012 451.8054,-109.6901"/>
<text text-anchor="middle" x="421.9636" y="-109.2" font-family="Times,serif" font-size="14.00" fill="#000000">4(11)</text>
</g>
<!-- t -->
<g id="node9" class="node">
<title>t</title>
<ellipse fill="none" stroke="#000000" cx="594.2848" cy="-67" rx="18" ry="18"/>
<ellipse fill="none" stroke="#000000" cx="594.2848" cy="-67" rx="22" ry="22"/>
<text text-anchor="middle" x="594.2848" y="-62.8" font-family="Times,serif" font-size="14.00" fill="#000000">t</text>
</g>
<!-- 6&#45;&gt;t -->
<g id="edge11" class="edge">
<title>6&#45;&gt;t</title>
<path fill="none" stroke="#000000" d="M504.7142,-100.2882C521.4331,-94.0748 545.174,-85.2516 564.0136,-78.25"/>
<polygon fill="#000000" stroke="#000000" points="565.473,-81.4417 573.6273,-74.6772 563.0344,-74.8801 565.473,-81.4417"/>
<text text-anchor="middle" x="539.1242" y="-96.2" font-family="Times,serif" font-size="14.00" fill="#000000">3(14)</text>
</g>
<!-- 7&#45;&gt;t -->
<g id="edge12" class="edge">
<title>7&#45;&gt;t</title>
<path fill="none" stroke="#000000" d="M444.1388,-53.059C474.1247,-55.8432 527.798,-60.8267 562.1885,-64.0199"/>
<polygon fill="#000000" stroke="#000000" points="561.9139,-67.5093 572.1947,-64.9489 562.5611,-60.5393 561.9139,-67.5093"/>
<text text-anchor="middle" x="483.9636" y="-63.2" font-family="Times,serif" font-size="14.00" fill="#000000">10(22)</text>
</g>
</g>
</svg>
